NFP 10-1-14.ufo
<glyph name="G" format="1">
  <advance width="687"/>
  <unicode hex="0047"/>
  <outline>
    <contour>
      <point x="653" y="219" type="line"/>
      <point x="401" y="219" type="line"/>
      <point x="401" y="309" type="line"/>
      <point x="653" y="309" type="line"/>
    </contour>
    <contour>
      <point x="583" y="0" type="line"/>
      <point x="551" y="309" type="line"/>
      <point x="653" y="309" type="line"/>
      <point x="653" y="0" type="line"/>
    </contour>
    <component base="C"/>
  </outline>
</glyph>
<glyph name="K" format="1">
  <advance width="623"/>
  <unicode hex="004B"/>
  <outline>
    <contour>
      <point x="514" y="685" type="line"/>
      <point x="635" y="685" type="line"/>
      <point x="126" y="107" type="line"/>
      <point x="58" y="168" type="line"/>
    </contour>
    <contour>
      <point x="532" y="0" type="line"/>
      <point x="281" y="369" type="line"/>
      <point x="356" y="422" type="line"/>
      <point x="643" y="0" type="line"/>
    </contour>
    <component base="I"/>
  </outline>
</glyph>
<glyph name="N" format="1">
  <advance width="664"/>
  <unicode hex="004E"/>
  <outline>
    <contour>
      <point x="497" y="0" type="line"/>
      <point x="63" y="685" type="line"/>
      <point x="179" y="685" type="line"/>
      <point x="606" y="0" type="line"/>
    </contour>
    <component base="I" xOffset="464"/>
    <component base="I"/>
  </outline>
</glyph>
<glyph name="R" format="1">
  <advance width="540"/>
  <unicode hex="0052"/>
  <outline>
    <contour>
      <point x="254" y="287" type="line"/>
      <point x="343" y="314" type="line"/>
      <point x="530" y="0" type="line"/>
      <point x="418" y="0" type="line"/>
    </contour>
    <component base="P"/>
  </outline>
</glyph>
<glyph name="Y" format="1">
  <advance width="537"/>
  <unicode hex="0059"/>
  <outline>
    <contour>
      <point x="542" y="685" type="line"/>
      <point x="313" y="264" type="line"/>
      <point x="223" y="264" type="line"/>
      <point x="448" y="685" type="line"/>
    </contour>
    <contour>
      <point x="-5" y="685" type="line"/>
      <point x="89" y="685" type="line"/>
      <point x="313" y="264" type="line"/>
      <point x="223" y="264" type="line"/>
    </contour>
    <component base="I" yScale="0.385917869081" xOffset="168"/>
  </outline>
</glyph>
<glyph name="a" format="1">
  <advance width="516"/>
  <unicode hex="0061"/>
  <outline>
    <contour>
      <point x="29" y="388" type="line"/>
      <point x="87" y="478"/>
      <point x="158" y="505"/>
      <point x="251" y="505" type="curve" smooth="yes"/>
      <point x="361" y="505"/>
      <point x="457" y="460"/>
      <point x="452" y="320" type="curve" smooth="yes"/>
      <point x="445" y="138" type="line" smooth="yes"/>
      <point x="444" y="104"/>
      <point x="451" y="73"/>
      <point x="517" y="84" type="curve"/>
      <point x="505" y="-5" type="line"/>
      <point x="399" y="-20"/>
      <point x="350" y="10"/>
      <point x="355" y="142" type="curve" smooth="yes"/>
      <point x="362" y="324" type="line" smooth="yes"/>
      <point x="365" y="396"/>
      <point x="310" y="417"/>
      <point x="251" y="417" type="curve"/>
      <point x="193" y="417"/>
      <point x="144" y="398"/>
      <point x="109" y="347" type="curve"/>
    </contour>
    <contour>
      <point x="405" y="225" type="line"/>
      <point x="316" y="233"/>
      <point x="115" y="233"/>
      <point x="115" y="139" type="curve"/>
      <point x="115" y="101"/>
      <point x="149" y="71"/>
      <point x="205" y="71" type="curve"/>
      <point x="265.138728324" y="71.0"/>
      <point x="358" y="123"/>
      <point x="358" y="228" type="curve"/>
      <point x="410" y="222" type="line"/>
      <point x="398.0" y="79.6085106383"/>
      <point x="324" y="-12"/>
      <point x="197" y="-12" type="curve"/>
      <point x="107" y="-12"/>
      <point x="25.0" y="27.7333333333"/>
      <point x="25" y="137" type="curve"/>
      <point x="25" y="272"/>
      <point x="228" y="323"/>
      <point x="413" y="305" type="curve"/>
    </contour>
    <contour>
      <point x="251" y="505" type="move" name="top"/>
    </contour>
    <contour>
      <point x="197" y="-12" type="move" name="bottom"/>
    </contour>
    <contour>
      <point x="505" y="-5" type="move" name="ogonek"/>
    </contour>
  </outline>
</glyph>
<glyph name="o" format="1">
  <advance width="558"/>
  <unicode hex="006F"/>
  <outline>
    <contour>
      <point x="279" y="70" type="curve" smooth="yes"/>
      <point x="369" y="70"/>
      <point x="433" y="148"/>
      <point x="433" y="249" type="curve" smooth="yes"/>
      <point x="433" y="352"/>
      <point x="369" y="430"/>
      <point x="279" y="430" type="curve" smooth="yes"/>
      <point x="189" y="430"/>
      <point x="125" y="352"/>
      <point x="125" y="249" type="curve" smooth="yes"/>
      <point x="125" y="148"/>
      <point x="189" y="70"/>
    </contour>
    <contour>
      <point x="279" y="-10" type="curve" smooth="yes"/>
      <point x="142" y="-10"/>
      <point x="35" y="88"/>
      <point x="35" y="249" type="curve" smooth="yes"/>
      <point x="35" y="410"/>
      <point x="147" y="510"/>
      <point x="279" y="510" type="curve" smooth="yes"/>
      <point x="411" y="510"/>
      <point x="523" y="410"/>
      <point x="523" y="249" type="curve" smooth="yes"/>
      <point x="523" y="88"/>
      <point x="416" y="-10"/>
    </contour>
  </outline>
</glyph>
<glyph name="w" format="1">
  <advance width="714"/>
  <unicode hex="0077"/>
  <outline>
    <contour>
      <point x="257" y="0" type="line"/>
      <point x="164" y="0" type="line"/>
      <point x="315" y="500" type="line"/>
      <point x="398" y="500" type="line"/>
    </contour>
    <contour>
      <point x="155" y="0" type="line"/>
      <point x="10" y="500" type="line"/>
      <point x="99" y="500" type="line"/>
      <point x="244" y="0" type="line"/>
    </contour>
    <contour>
      <point x="568" y="0" type="line"/>
      <point x="479" y="0" type="line"/>
      <point x="615" y="500" type="line"/>
      <point x="704" y="500" type="line"/>
    </contour>
    <contour>
      <point x="466" y="0" type="line"/>
      <point x="316" y="500" type="line"/>
      <point x="399" y="500" type="line"/>
      <point x="559" y="0" type="line"/>
    </contour>
  </outline>
</glyph>
<glyph name="uni0927" format="1">
  <advance width="555"/>
  <unicode hex="0927"/>
  <outline>
    <contour>
      <point x="291" y="425" type="curve"/>
      <point x="255" y="356" type="line"/>
      <point x="106" y="357"/>
      <point x="-2.0" y="414.01369863"/>
      <point x="-3" y="510" type="curve"/>
      <point x="-3" y="585"/>
      <point x="57.4857142857" y="638.0"/>
      <point x="143" y="653" type="curve"/>
      <point x="161" y="605" type="line"/>
      <point x="115" y="594"/>
      <point x="92.0" y="556.0"/>
      <point x="92" y="519" type="curve" smooth="yes"/>
      <point x="92.0" y="455.693877551"/>
      <point x="165" y="441"/>
    </contour>
    <contour>
      <point x="281" y="343" type="line"/>
      <point x="183.0" y="358.259259259"/>
      <point x="136" y="295"/>
      <point x="136" y="240" type="curve"/>
      <point x="136" y="188"/>
      <point x="180.0" y="152.0"/>
      <point x="253" y="152" type="curve" smooth="yes"/>
      <point x="315" y="152"/>
      <point x="361" y="174"/>
      <point x="395" y="209" type="curve"/>
      <point x="444" y="151" type="line"/>
      <point x="398" y="103"/>
      <point x="334" y="70"/>
      <point x="251" y="70" type="curve" smooth="yes"/>
      <point x="133.0" y="70.0"/>
      <point x="45" y="121"/>
      <point x="45" y="235" type="curve"/>
      <point x="45" y="341"/>
      <point x="148.0" y="439.645833333"/>
      <point x="291" y="423" type="curve"/>
    </contour>
    <contour>
      <point x="-47" y="685" type="line"/>
      <point x="161" y="685" type="line"/>
      <point x="161" y="685"/>
      <point x="161" y="605"/>
      <point x="161" y="605" type="curve"/>
      <point x="-47" y="605" type="line"/>
    </contour>
    <component base="uni094E" xOffset="271"/>
  </outline>
</glyph>
<glyph name="uni092D" format="1">
  <advance width="640"/>
  <unicode hex="092D"/>
  <outline>
    <contour>
      <point x="194" y="312" type="line"/>
      <point x="194" y="617" type="line" smooth="yes"/>
      <point x="194" y="637"/>
      <point x="180" y="651"/>
      <point x="159" y="651" type="curve" smooth="yes"/>
      <point x="138" y="651"/>
      <point x="120" y="636"/>
      <point x="120" y="617" type="curve" smooth="yes"/>
      <point x="120" y="598"/>
      <point x="137" y="584"/>
      <point x="159" y="584" type="curve" smooth="yes"/>
      <point x="181" y="584"/>
      <point x="194" y="596"/>
      <point x="194" y="617" type="curve"/>
      <point x="276" y="617" type="line"/>
      <point x="276" y="546"/>
      <point x="235" y="502"/>
      <point x="159" y="502" type="curve" smooth="yes"/>
      <point x="83" y="502"/>
      <point x="38" y="558"/>
      <point x="38" y="617" type="curve" smooth="yes"/>
      <point x="38" y="676"/>
      <point x="86" y="733"/>
      <point x="159" y="733" type="curve" smooth="yes"/>
      <point x="232" y="733"/>
      <point x="276" y="685"/>
      <point x="276" y="617" type="curve" smooth="yes"/>
      <point x="276" y="312" type="line"/>
    </contour>
    <component base="component_10" xOffset="91"/>
    <component base="uni094E" xOffset="356"/>
  </outline>
</glyph>
<glyph name="uni0932" format="1">
  <advance width="781"/>
  <unicode hex="0932"/>
  <outline>
    <contour>
      <point x="336" y="219" type="line"/>
      <point x="324" y="320"/>
      <point x="289" y="364"/>
      <point x="226" y="364" type="curve" smooth="yes"/>
      <point x="147" y="364"/>
      <point x="116" y="301"/>
      <point x="116" y="243" type="curve" smooth="yes"/>
      <point x="116" y="176"/>
      <point x="156" y="145"/>
      <point x="237" y="110" type="curve"/>
      <point x="201" y="33" type="line"/>
      <point x="81" y="67"/>
      <point x="30" y="149"/>
      <point x="28" y="235" type="curve" smooth="yes"/>
      <point x="26" y="345"/>
      <point x="91" y="452"/>
      <point x="218" y="452" type="curve"/>
      <point x="331" y="452"/>
      <point x="415" y="361"/>
      <point x="403" y="244" type="curve"/>
    </contour>
    <contour>
      <point x="420" y="241" type="curve"/>
      <point x="336" y="219" type="line"/>
      <point x="336.0" y="359.945945946"/>
      <point x="396" y="510"/>
      <point x="601" y="464" type="curve"/>
      <point x="598" y="386" type="line"/>
      <point x="456" y="425"/>
      <point x="392.23853211" y="337.335616438"/>
    </contour>
    <component base="component_6" xOffset="159"/>
    <component base="component_6" xOffset="-108"/>
    <component base="component_6" xOffset="389"/>
    <component base="uni0964" xOffset="429"/>
  </outline>
</glyph>
<glyph name="uni0967" format="1">
  <advance width="391"/>
  <unicode hex="0967"/>
  <outline>
    <contour>
      <point x="45" y="555" type="curve" smooth="yes"/>
      <point x="45" y="638"/>
      <point x="112" y="705"/>
      <point x="196" y="705" type="curve" smooth="yes"/>
      <point x="279" y="705"/>
      <point x="346" y="638"/>
      <point x="346" y="555" type="curve" smooth="yes"/>
      <point x="346" y="457"/>
      <point x="308" y="357"/>
      <point x="237" y="266" type="curve"/>
      <point x="262" y="238"/>
      <point x="326" y="189"/>
      <point x="326" y="105" type="curve"/>
      <point x="326" y="2"/>
      <point x="261" y="-50"/>
      <point x="189" y="-50" type="curve"/>
      <point x="189" y="41" type="line"/>
      <point x="211" y="41"/>
      <point x="230" y="71"/>
      <point x="230" y="109" type="curve" smooth="yes"/>
      <point x="230" y="165"/>
      <point x="172" y="215"/>
      <point x="120" y="267" type="curve"/>
      <point x="186" y="323"/>
      <point x="223" y="377"/>
      <point x="223" y="411" type="curve"/>
      <point x="216" y="407"/>
      <point x="207" y="404"/>
      <point x="196" y="404" type="curve" smooth="yes"/>
      <point x="112" y="404"/>
      <point x="45" y="471"/>
    </contour>
    <contour>
      <point x="141" y="555" type="line"/>
      <point x="141" y="523"/>
      <point x="164" y="500"/>
      <point x="196" y="500" type="curve" smooth="yes"/>
      <point x="227" y="500"/>
      <point x="251" y="523"/>
      <point x="251" y="555" type="curve" smooth="yes"/>
      <point x="251" y="586"/>
      <point x="227" y="609"/>
      <point x="196" y="609" type="curve" smooth="yes"/>
      <point x="164" y="609"/>
      <point x="141" y="586"/>
      <point x="141" y="555" type="curve"/>
    </contour>
  </outline>
</glyph>
<glyph name="uni0969" format="1">
  <advance width="468"/>
  <unicode hex="0969"/>
  <outline>
    <contour>
      <point x="75" y="636" type="line"/>
      <point x="115" y="684"/>
      <point x="171" y="711"/>
      <point x="226" y="711" type="curve" smooth="yes"/>
      <point x="341" y="711"/>
      <point x="418" y="632"/>
      <point x="418" y="519" type="curve" smooth="yes"/>
      <point x="418" y="466"/>
      <point x="397" y="418"/>
      <point x="363" y="389" type="curve"/>
      <point x="397" y="360"/>
      <point x="418" y="312"/>
      <point x="418" y="259" type="curve" smooth="yes"/>
      <point x="418" y="171"/>
      <point x="354" y="96"/>
      <point x="267" y="81" type="curve"/>
      <point x="267" y="49"/>
      <point x="290" y="26"/>
      <point x="322" y="26" type="curve" smooth="yes"/>
      <point x="363" y="26" type="line"/>
      <point x="363" y="-70" type="line"/>
      <point x="322" y="-70" type="line" smooth="yes"/>
      <point x="238" y="-70"/>
      <point x="171" y="-3"/>
      <point x="171" y="81" type="curve"/>
      <point x="117" y="81"/>
      <point x="75" y="118"/>
      <point x="75" y="163" type="curve" smooth="yes"/>
      <point x="75" y="208"/>
      <point x="112" y="245"/>
      <point x="157" y="245" type="curve" smooth="yes"/>
      <point x="207" y="245"/>
      <point x="246" y="215"/>
      <point x="246" y="177" type="curve"/>
      <point x="289" y="177"/>
      <point x="322" y="214"/>
      <point x="322" y="259" type="curve" smooth="yes"/>
      <point x="322" y="304"/>
      <point x="279" y="341"/>
      <point x="226" y="341" type="curve" smooth="yes"/>
      <point x="171" y="341" type="line"/>
      <point x="171" y="437" type="line"/>
      <point x="226" y="437" type="line" smooth="yes"/>
      <point x="279" y="437"/>
      <point x="322" y="477"/>
      <point x="322" y="526" type="curve" smooth="yes"/>
      <point x="322" y="575"/>
      <point x="279" y="615"/>
      <point x="226" y="615" type="curve" smooth="yes"/>
      <point x="204" y="615"/>
      <point x="175" y="601"/>
      <point x="144" y="574" type="curve"/>
    </contour>
  </outline>
</glyph>
<glyph name="uni096B" format="1">
  <advance width="526"/>
  <unicode hex="096B"/>
  <outline>
    <contour>
      <point x="30" y="685" type="line"/>
      <point x="126" y="685" type="line"/>
      <point x="126" y="521" type="line" smooth="yes"/>
      <point x="126" y="445"/>
      <point x="188" y="384"/>
      <point x="263" y="384" type="curve"/>
      <point x="236" y="432"/>
      <point x="222" y="477"/>
      <point x="222" y="521" type="curve" smooth="yes"/>
      <point x="222.0" y="612.567093496"/>
      <point x="286.245138037" y="685.0"/>
      <point x="359" y="685" type="curve" smooth="yes"/>
      <point x="432.891015964" y="685.0"/>
      <point x="496.0" y="611.132939728"/>
      <point x="496" y="521" type="curve" smooth="yes"/>
      <point x="496" y="443"/>
      <point x="460" y="366"/>
      <point x="400" y="315" type="curve"/>
      <point x="427" y="284"/>
      <point x="441" y="230"/>
      <point x="441" y="164" type="curve" smooth="yes"/>
      <point x="441.0" y="74.0"/>
      <point x="367.0" y="0.0"/>
      <point x="277" y="0" type="curve" smooth="yes"/>
      <point x="186.4375" y="0.0"/>
      <point x="112.0" y="72.5483870968"/>
      <point x="112" y="164" type="curve"/>
      <point x="208" y="164" type="line"/>
      <point x="208" y="126"/>
      <point x="238" y="96"/>
      <point x="277" y="96" type="curve" smooth="yes"/>
      <point x="315" y="96"/>
      <point x="345" y="126"/>
      <point x="345" y="164" type="curve" smooth="yes"/>
      <point x="345" y="199"/>
      <point x="331" y="240"/>
      <point x="304" y="288" type="curve"/>
      <point x="263" y="288" type="line" smooth="yes"/>
      <point x="134.284981803" y="288.0"/>
      <point x="30.0" y="391.718166882"/>
      <point x="30" y="521" type="curve" smooth="yes"/>
    </contour>
    <contour>
      <point x="318" y="521" type="curve" smooth="yes"/>
      <point x="318" y="478"/>
      <point x="329" y="432"/>
      <point x="352" y="411" type="curve"/>
      <point x="383" y="437"/>
      <point x="400" y="477"/>
      <point x="400" y="521" type="curve" smooth="yes"/>
      <point x="400.0" y="557.0"/>
      <point x="378" y="589"/>
      <point x="360" y="589" type="curve"/>
      <point x="336" y="589"/>
      <point x="318.0" y="555.0"/>
    </contour>
  </outline>
</glyph>
<glyph name="endash" format="1">
  <advance width="565"/>
  <unicode hex="2013"/>
  <outline>
    <contour>
      <point x="0" y="315" type="line"/>
      <point x="565" y="315" type="line"/>
      <point x="565" y="233" type="line"/>
      <point x="0" y="233" type="line"/>
    </contour>
  </outline>
</glyph>
<glyph name="emdash" format="1">
  <advance width="776"/>
  <unicode hex="2014"/>
  <outline>
    <contour>
      <point x="0" y="315" type="line"/>
      <point x="776" y="315" type="line"/>
      <point x="776" y="233" type="line"/>
      <point x="0" y="233" type="line"/>
    </contour>
  </outline>
</glyph>
<glyph name="fl" format="1">
  <advance width="525"/>
  <unicode hex="FB02"/>
  <outline>
    <contour>
      <point x="197" y="0" type="line"/>
      <point x="107" y="0" type="line"/>
      <point x="107" y="572" type="line" smooth="yes"/>
      <point x="107" y="698"/>
      <point x="258" y="722"/>
      <point x="385" y="684" type="curve"/>
      <point x="380" y="594" type="line"/>
      <point x="326" y="615"/>
      <point x="197" y="635"/>
      <point x="197" y="546" type="curve" smooth="yes"/>
    </contour>
    <contour>
      <point x="23" y="410" type="line"/>
      <point x="23" y="500" type="line"/>
      <point x="307" y="500" type="line"/>
      <point x="307" y="410" type="line"/>
    </contour>
    <component base="l" xOffset="325"/>
  </outline>
</glyph>
<glyph name="uni0907" format="1">
  <advance width="675"/>
  <outline>
    <contour>
      <point x="522" y="461" type="line"/>
      <point x="432" y="461" type="line"/>
      <point x="432" y="644" type="line"/>
      <point x="522" y="644" type="line"/>
    </contour>
    <contour>
      <point x="640.0" y="42.1301775148"/>
      <point x="518.471698113" y="4.0"/>
      <point x="355" y="4" type="curve" smooth="yes"/>
      <point x="174" y="4"/>
      <point x="36" y="35"/>
      <point x="36" y="159" type="curve"/>
      <point x="36" y="224"/>
      <point x="78" y="267"/>
      <point x="148" y="267" type="curve"/>
      <point x="283" y="267"/>
      <point x="311" y="130"/>
      <point x="381" y="-42" type="curve"/>
      <point x="301" y="-81" type="line"/>
      <point x="257" y="40"/>
      <point x="210.538461538" y="188.0"/>
      <point x="154" y="188" type="curve"/>
      <point x="138" y="188"/>
      <point x="125" y="175"/>
      <point x="125" y="162" type="curve"/>
      <point x="125" y="116"/>
      <point x="260" y="86"/>
      <point x="364" y="86" type="curve" smooth="yes"/>
      <point x="474.927710843" y="86.0"/>
      <point x="550.0" y="117.414634146"/>
      <point x="550" y="178" type="curve"/>
      <point x="550.0" y="243.912621359"/>
      <point x="509.764705882" y="271.0"/>
      <point x="455" y="271" type="curve" smooth="yes"/>
      <point x="423.0" y="271.0"/>
      <point x="352.0" y="256.0"/>
      <point x="318" y="256" type="curve" smooth="yes"/>
      <point x="188.59375" y="256.0"/>
      <point x="116.0" y="303.851851852"/>
      <point x="116" y="408" type="curve"/>
      <point x="116.0" y="505.37704918"/>
      <point x="199.25" y="540.0"/>
      <point x="296" y="540" type="curve" smooth="yes"/>
      <point x="432" y="540" type="line"/>
      <point x="432" y="461" type="line"/>
      <point x="287" y="461" type="line" smooth="yes"/>
      <point x="231.229508197" y="461.0"/>
      <point x="206.0" y="438.5"/>
      <point x="206" y="411" type="curve" smooth="yes"/>
      <point x="206.0" y="370.679012346"/>
      <point x="227.923076923" y="340.0"/>
      <point x="320" y="340" type="curve" smooth="yes"/>
      <point x="358.0" y="340.0"/>
      <point x="445.0" y="354.0"/>
      <point x="491" y="354" type="curve" smooth="yes"/>
      <point x="579.971223022" y="354.0"/>
      <point x="640.0" y="293.535911602"/>
      <point x="640" y="183" type="curve"/>
    </contour>
    <component base="component_6" xOffset="283"/>
    <component base="component_6" xOffset="-108"/>
    <component base="component_6" xOffset="62"/>
  </outline>
</glyph>
<glyph name="uni0916" format="1">
  <advance width="862"/>
  <outline>
    <contour>
      <point x="355" y="357" type="curve"/>
      <point x="355" y="435"/>
      <point x="423" y="511"/>
      <point x="515" y="511" type="curve" smooth="yes"/>
      <point x="593" y="511"/>
      <point x="674" y="485"/>
      <point x="718" y="390" type="curve"/>
      <point x="674" y="364" type="line"/>
      <point x="613" y="420"/>
      <point x="571" y="431"/>
      <point x="523" y="431" type="curve"/>
      <point x="465" y="431"/>
      <point x="440" y="395"/>
      <point x="440" y="357" type="curve" smooth="yes"/>
      <point x="440" y="303"/>
      <point x="483" y="278"/>
      <point x="535" y="278" type="curve" smooth="yes"/>
      <point x="602" y="278"/>
      <point x="639" y="312"/>
      <point x="674" y="364" type="curve"/>
      <point x="723" y="328" type="line"/>
      <point x="699" y="280"/>
      <point x="657" y="199"/>
      <point x="535" y="199" type="curve" smooth="yes"/>
      <point x="436" y="199"/>
      <point x="355" y="255"/>
    </contour>
    <contour>
      <point x="294" y="379" type="line" smooth="yes"/>
      <point x="294" y="314"/>
      <point x="266" y="250"/>
      <point x="200" y="250" type="curve" smooth="yes"/>
      <point x="163" y="250"/>
      <point x="115" y="270"/>
      <point x="53" y="321" type="curve"/>
      <point x="112" y="346" type="line"/>
      <point x="140.359060403" y="199.0"/>
      <point x="269" y="90"/>
      <point x="425" y="90" type="curve" smooth="yes"/>
      <point x="553" y="90"/>
      <point x="618.016393443" y="125.0"/>
      <point x="715" y="213" type="curve"/>
      <point x="755" y="164" type="line"/>
      <point x="667.729508197" y="66.0"/>
      <point x="569" y="6"/>
      <point x="404" y="6" type="curve" smooth="yes"/>
      <point x="233" y="6"/>
      <point x="75.6901408451" y="130.0"/>
      <point x="34" y="324" type="curve"/>
      <point x="34" y="325" type="line"/>
      <point x="98" y="367" type="line" smooth="yes"/>
      <point x="98" y="366" type="line"/>
      <point x="128" y="341"/>
      <point x="150" y="331"/>
      <point x="166" y="331" type="curve" smooth="yes"/>
      <point x="198" y="331"/>
      <point x="204" y="372"/>
      <point x="204" y="405" type="curve" smooth="yes"/>
      <point x="204" y="665" type="line"/>
      <point x="294" y="665" type="line"/>
    </contour>
    <component base="component_6" xOffset="183"/>
    <component base="component_6" xOffset="-108"/>
    <component base="uni094E" xOffset="578"/>
  </outline>
</glyph>
<glyph name="uni091A" format="1">
  <advance width="535"/>
  <outline>
    <contour>
      <point x="292" y="379" type="line"/>
      <point x="161.0" y="379.0"/>
      <point x="116.0" y="320.444444444"/>
      <point x="116" y="255" type="curve"/>
      <point x="116.0" y="185.282828283"/>
      <point x="160.0" y="136.0"/>
      <point x="233" y="136" type="curve" smooth="yes"/>
      <point x="295" y="136"/>
      <point x="341" y="158"/>
      <point x="375" y="193" type="curve"/>
      <point x="424" y="135" type="line"/>
      <point x="378" y="87"/>
      <point x="314" y="54"/>
      <point x="231" y="54" type="curve" smooth="yes"/>
      <point x="113.0" y="54.0"/>
      <point x="25.0" y="115.214689266"/>
      <point x="25" y="251" type="curve"/>
      <point x="25.0" y="363.727272727"/>
      <point x="133.0" y="468.021276596"/>
      <point x="282" y="451" type="curve"/>
    </contour>
    <component base="component_6" xOffset="-110" yOffset="-226"/>
    <component base="component_6" xOffset="-108"/>
    <component base="uni094E" xOffset="251"/>
  </outline>
</glyph>
<glyph name="uni091C" format="1">
  <advance width="765"/>
  <outline>
    <contour>
      <point x="282" y="379" type="curve"/>
      <point x="282" y="431" type="line"/>
      <point x="425" y="431"/>
      <point x="508" y="364"/>
      <point x="508" y="251" type="curve"/>
      <point x="508" y="108"/>
      <point x="408" y="44"/>
      <point x="272" y="44" type="curve" smooth="yes"/>
      <point x="91" y="44"/>
      <point x="13" y="183"/>
      <point x="-10" y="305" type="curve"/>
      <point x="69" y="340" type="line"/>
      <point x="97" y="221"/>
      <point x="157" y="126"/>
      <point x="280" y="126" type="curve" smooth="yes"/>
      <point x="365" y="126"/>
      <point x="417" y="172"/>
      <point x="417" y="235" type="curve"/>
      <point x="417" y="310"/>
      <point x="392" y="379"/>
    </contour>
    <component base="uni094E" xOffset="481"/>
    <component base="component_6" xOffset="184" yOffset="-226"/>
    <component base="component_6" xOffset="-103"/>
    <component base="component_6" xOffset="107"/>
  </outline>
</glyph>
<glyph name="uni091F" format="1">
  <advance width="540"/>
  <outline>
    <contour>
      <point x="407" y="421" type="line"/>
      <point x="317" y="421" type="line"/>
      <point x="317" y="664" type="line"/>
      <point x="407" y="664" type="line"/>
    </contour>
    <contour>
      <point x="317" y="421" type="line"/>
      <point x="191" y="421"/>
      <point x="81" y="350"/>
      <point x="81" y="245" type="curve"/>
      <point x="81" y="149"/>
      <point x="149" y="80"/>
      <point x="260" y="80" type="curve" smooth="yes"/>
      <point x="377" y="80"/>
      <point x="434" y="145"/>
      <point x="461" y="227" type="curve"/>
      <point x="541" y="195" type="line"/>
      <point x="518" y="101"/>
      <point x="440" y="-6"/>
      <point x="261" y="-6" type="curve" smooth="yes"/>
      <point x="105" y="-6"/>
      <point x="-10" y="74"/>
      <point x="-10" y="253" type="curve"/>
      <point x="-10" y="419"/>
      <point x="144" y="500"/>
      <point x="317" y="500" type="curve"/>
    </contour>
    <component base="component_6" xOffset="-103"/>
    <component base="component_6" xOffset="148"/>
  </outline>
</glyph>
<glyph name="uni0920" format="1">
  <advance width="540"/>
  <outline>
    <contour>
      <point x="407" y="421" type="line"/>
      <point x="317" y="421" type="line"/>
      <point x="317" y="664" type="line"/>
      <point x="407" y="664" type="line"/>
    </contour>
    <contour>
      <point x="317" y="421" type="line"/>
      <point x="191" y="421"/>
      <point x="81" y="350"/>
      <point x="81" y="245" type="curve"/>
      <point x="81" y="149"/>
      <point x="149" y="80"/>
      <point x="260" y="80" type="curve" smooth="yes"/>
      <point x="377" y="80"/>
      <point x="461" y="141"/>
      <point x="461" y="234" type="curve"/>
      <point x="461" y="340"/>
      <point x="405" y="391"/>
      <point x="333" y="435" type="curve"/>
      <point x="406" y="492" type="line"/>
      <point x="456" y="451"/>
      <point x="547" y="413"/>
      <point x="547" y="239" type="curve"/>
      <point x="547" y="90"/>
      <point x="449" y="-6"/>
      <point x="261" y="-6" type="curve" smooth="yes"/>
      <point x="105" y="-6"/>
      <point x="-10" y="74"/>
      <point x="-10" y="253" type="curve"/>
      <point x="-10" y="419"/>
      <point x="144" y="500"/>
      <point x="317" y="500" type="curve"/>
    </contour>
    <component base="component_6" xOffset="-103"/>
    <component base="component_6" xOffset="148"/>
  </outline>
</glyph>
<glyph name="uni0921" format="1">
  <advance width="675"/>
  <outline>
    <contour>
      <point x="522" y="441" type="line"/>
      <point x="432" y="441" type="line"/>
      <point x="432" y="644" type="line"/>
      <point x="522" y="644" type="line"/>
    </contour>
    <contour>
      <point x="630.0" y="32.0"/>
      <point x="516.725490196" y="-6.0"/>
      <point x="365" y="-6" type="curve" smooth="yes"/>
      <point x="219" y="-6"/>
      <point x="104" y="62"/>
      <point x="47" y="128" type="curve"/>
      <point x="97" y="202" type="line"/>
      <point x="151" y="136"/>
      <point x="254" y="76"/>
      <point x="374" y="76" type="curve" smooth="yes"/>
      <point x="472.961538462" y="76.0"/>
      <point x="540.0" y="107.0"/>
      <point x="540" y="168" type="curve"/>
      <point x="540.0" y="220.0"/>
      <point x="508.0" y="241.0"/>
      <point x="465" y="241" type="curve" smooth="yes"/>
      <point x="433" y="241"/>
      <point x="362" y="226"/>
      <point x="328" y="226" type="curve" smooth="yes"/>
      <point x="205" y="226"/>
      <point x="136" y="277"/>
      <point x="136" y="388" type="curve"/>
      <point x="136.0" y="485.0"/>
      <point x="210.0" y="520.0"/>
      <point x="296" y="520" type="curve" smooth="yes"/>
      <point x="432" y="520" type="line"/>
      <point x="432" y="441" type="line"/>
      <point x="287" y="441" type="line" smooth="yes"/>
      <point x="245.0" y="441.0"/>
      <point x="226.0" y="419.0"/>
      <point x="226" y="391" type="curve" smooth="yes"/>
      <point x="226" y="345"/>
      <point x="246" y="310"/>
      <point x="330" y="310" type="curve" smooth="yes"/>
      <point x="368" y="310"/>
      <point x="455" y="324"/>
      <point x="501" y="324" type="curve" smooth="yes"/>
      <point x="578.0" y="324.0"/>
      <point x="630.0" y="271.0"/>
      <point x="630" y="173" type="curve"/>
    </contour>
    <component base="component_6" xOffset="283"/>
    <component base="component_6" xOffset="-108"/>
    <component base="component_6" xOffset="62"/>
  </outline>
</glyph>
<glyph name="uni0926" format="1">
  <advance width="624"/>
  <outline>
    <contour>
      <point x="407" y="421" type="line"/>
      <point x="317" y="421" type="line"/>
      <point x="317" y="664" type="line"/>
      <point x="407" y="664" type="line"/>
    </contour>
    <contour>
      <point x="317.0" y="421.0" type="line"/>
      <point x="191.0" y="421.0"/>
      <point x="81.0" y="350.0"/>
      <point x="81.0" y="245.0" type="curve"/>
      <point x="81.0" y="149.0"/>
      <point x="176.0" y="80.0"/>
      <point x="287.0" y="80.0" type="curve" smooth="yes"/>
      <point x="420.0" y="80.0"/>
      <point x="500.0" y="112.0"/>
      <point x="500.0" y="185.0" type="curve"/>
      <point x="500.0" y="227.0"/>
      <point x="479" y="257"/>
      <point x="432" y="257" type="curve"/>
      <point x="380.0" y="257.0"/>
      <point x="358" y="202"/>
      <point x="358" y="157" type="curve"/>
      <point x="358" y="28"/>
      <point x="451.0" y="-44.2903225806"/>
      <point x="565" y="-131" type="curve"/>
      <point x="491" y="-174" type="line"/>
      <point x="365.0" y="-83.6072507553"/>
      <point x="269" y="-8"/>
      <point x="269" y="166" type="curve"/>
      <point x="269" y="255"/>
      <point x="337.0" y="342.0"/>
      <point x="428" y="342" type="curve"/>
      <point x="530" y="342"/>
      <point x="588.0" y="275.0"/>
      <point x="588.0" y="183.0" type="curve"/>
      <point x="588.0" y="64.0"/>
      <point x="455.0" y="-6.0"/>
      <point x="288.0" y="-6.0" type="curve" smooth="yes"/>
      <point x="132.0" y="-6.0"/>
      <point x="-10.0" y="74.0"/>
      <point x="-10.0" y="253.0" type="curve"/>
      <point x="-10.0" y="419.0"/>
      <point x="144.0" y="500.0"/>
      <point x="317.0" y="500.0" type="curve"/>
    </contour>
    <component base="component_6" xOffset="232"/>
    <component base="component_6" xOffset="-103"/>
    <component base="component_6" xOffset="148"/>
  </outline>
</glyph>
<glyph name="uni092F" format="1">
  <advance width="766"/>
  <outline>
    <contour>
      <point x="298" y="610"/>
      <point x="341" y="503"/>
      <point x="341" y="429" type="curve"/>
      <point x="341" y="346"/>
      <point x="300" y="264"/>
      <point x="204" y="264" type="curve" smooth="yes"/>
      <point x="167" y="264"/>
      <point x="119" y="280"/>
      <point x="57" y="321" type="curve"/>
      <point x="116" y="346" type="line"/>
      <point x="136" y="270"/>
      <point x="230" y="179"/>
      <point x="364" y="182" type="curve"/>
      <point x="483" y="178"/>
      <point x="549" y="231"/>
      <point x="619" y="290" type="curve"/>
      <point x="665" y="240" type="line"/>
      <point x="573" y="145"/>
      <point x="491" y="100"/>
      <point x="352" y="100" type="curve"/>
      <point x="167" y="100"/>
      <point x="66" y="223"/>
      <point x="38" y="324" type="curve"/>
      <point x="38" y="325" type="line"/>
      <point x="102" y="367" type="line" smooth="yes"/>
      <point x="102" y="366" type="line"/>
      <point x="132" y="348"/>
      <point x="154" y="341"/>
      <point x="170" y="341" type="curve" smooth="yes"/>
      <point x="239" y="341"/>
      <point x="251" y="399"/>
      <point x="251" y="446" type="curve"/>
      <point x="251" y="501"/>
      <point x="207" y="567"/>
      <point x="150" y="618" type="curve"/>
      <point x="192" y="652" type="line"/>
    </contour>
    <component base="component_6" xOffset="87"/>
    <component base="component_6" xOffset="-108"/>
    <component base="uni094E" xOffset="482"/>
  </outline>
</glyph>
<glyph name="uni0930" format="1">
  <advance width="468"/>
  <outline>
    <contour>
      <point x="294" y="399" type="line" smooth="yes"/>
      <point x="294" y="334"/>
      <point x="266" y="270"/>
      <point x="200" y="270" type="curve" smooth="yes"/>
      <point x="163" y="270"/>
      <point x="115" y="290"/>
      <point x="53" y="341" type="curve"/>
      <point x="112" y="366" type="line"/>
      <point x="136" y="222"/>
      <point x="360" y="62"/>
      <point x="360" y="62" type="curve"/>
      <point x="308" y="0" type="line"/>
      <point x="308" y="0"/>
      <point x="64" y="182"/>
      <point x="34" y="344" type="curve"/>
      <point x="34" y="345" type="line"/>
      <point x="98" y="387" type="line" smooth="yes"/>
      <point x="98" y="386" type="line"/>
      <point x="128" y="361"/>
      <point x="150" y="351"/>
      <point x="166" y="351" type="curve" smooth="yes"/>
      <point x="198" y="351"/>
      <point x="204" y="392"/>
      <point x="204" y="425" type="curve" smooth="yes"/>
      <point x="204" y="685" type="line"/>
      <point x="294" y="685" type="line"/>
    </contour>
    <component base="component_6" xOffset="76"/>
    <component base="component_6" xOffset="-108"/>
  </outline>
</glyph>
<glyph name="uni0935" format="1">
  <advance width="551"/>
  <outline>
    <contour>
      <point x="45" y="315" type="curve"/>
      <point x="45" y="393"/>
      <point x="113" y="469"/>
      <point x="205" y="469" type="curve" smooth="yes"/>
      <point x="283" y="469"/>
      <point x="364" y="443"/>
      <point x="408" y="348" type="curve"/>
      <point x="364" y="322" type="line"/>
      <point x="303" y="378"/>
      <point x="261" y="389"/>
      <point x="213" y="389" type="curve"/>
      <point x="155" y="389"/>
      <point x="130" y="353"/>
      <point x="130" y="315" type="curve" smooth="yes"/>
      <point x="130" y="261"/>
      <point x="173" y="236"/>
      <point x="225" y="236" type="curve" smooth="yes"/>
      <point x="292" y="236"/>
      <point x="329" y="270"/>
      <point x="364" y="322" type="curve"/>
      <point x="413" y="286" type="line"/>
      <point x="389" y="238"/>
      <point x="347" y="157"/>
      <point x="225" y="157" type="curve" smooth="yes"/>
      <point x="126" y="157"/>
      <point x="45" y="213"/>
    </contour>
    <component base="uni094E" xOffset="267"/>
    <component base="component_6" xOffset="-108"/>
  </outline>
</glyph>
<glyph name="uni0951" format="1">
  <advance width="284"/>
  <outline>
    <contour>
      <point x="97" y="685" type="line"/>
      <point x="97" y="850" type="line"/>
      <point x="187" y="850" type="line"/>
      <point x="187" y="685" type="line"/>
    </contour>
  </outline>
</glyph>
